<svg xmlns="http://www.w3.org/2000/svg" xmlns:xlink="http://www.w3.org/1999/xlink" width="500" zoomAndPan="magnify" viewBox="0 0 375 374.999991" height="500" preserveAspectRatio="xMidYMid meet" version="1.0"><defs><clipPath id="305b238cb8"><path d="M 32.359375 14.398438 L 342.839844 14.398438 L 342.839844 314 L 32.359375 314 Z M 32.359375 14.398438 " clip-rule="nonzero"/></clipPath><clipPath id="aca9084a3e"><path d="M 149 284 L 226 284 L 226 360.59375 L 149 360.59375 Z M 149 284 " clip-rule="nonzero"/></clipPath><clipPath id="25558229a9"><path d="M 105.523438 123.179688 L 269.773438 123.179688 L 269.773438 275.429688 L 105.523438 275.429688 Z M 105.523438 123.179688 " clip-rule="nonzero"/></clipPath><clipPath id="a8296e4831"><path d="M 174.941406 69.34375 L 199.691406 69.34375 L 199.691406 103.09375 L 174.941406 103.09375 Z M 174.941406 69.34375 " clip-rule="nonzero"/></clipPath><clipPath id="ad0d5576e6"><path d="M 256.914062 118.242188 L 281.664062 118.242188 L 281.664062 151.996094 L 256.914062 151.996094 Z M 256.914062 118.242188 " clip-rule="nonzero"/></clipPath><clipPath id="fc57186ce8"><path d="M 92.964844 118.242188 L 117.714844 118.242188 L 117.714844 151.996094 L 92.964844 151.996094 Z M 92.964844 118.242188 " clip-rule="nonzero"/></clipPath><clipPath id="23c3d4fb57"><path d="M 212.253906 79.667969 L 252 79.667969 L 252 119 L 212.253906 119 Z M 212.253906 79.667969 " clip-rule="nonzero"/></clipPath><clipPath id="dda470b6ab"><path d="M 217 115 L 233 115 L 233 130.667969 L 217 130.667969 Z M 217 115 " clip-rule="nonzero"/></clipPath><clipPath id="08d0e6cc1d"><path d="M 243 103 L 252.753906 103 L 252.753906 114 L 243 114 Z M 243 103 " clip-rule="nonzero"/></clipPath><clipPath id="367722d363"><path d="M 123 79.667969 L 162.425781 79.667969 L 162.425781 119 L 123 119 Z M 123 79.667969 " clip-rule="nonzero"/></clipPath><clipPath id="f3e29c9fac"><path d="M 142 115 L 158 115 L 158 130.667969 L 142 130.667969 Z M 142 115 " clip-rule="nonzero"/></clipPath><clipPath id="b513fe6a62"><path d="M 122.242188 103 L 132 103 L 132 114 L 122.242188 114 Z M 122.242188 103 " clip-rule="nonzero"/></clipPath></defs><g clip-path="url(#305b238cb8)"><path fill="#efb810" d="M 187.597656 14.203125 C 146.132812 14.203125 107.148438 30.351562 77.824219 59.675781 C 48.507812 89.003906 32.359375 127.992188 32.359375 169.464844 C 32.359375 201 41.757812 231.355469 59.539062 257.253906 C 76.902344 282.542969 101.054688 301.972656 129.382812 313.441406 L 131.21875 308.90625 C 74.132812 285.796875 37.25 231.0625 37.25 169.464844 C 37.25 86.546875 104.695312 19.09375 187.597656 19.09375 C 270.5 19.09375 337.949219 86.546875 337.949219 169.464844 C 337.949219 227.871094 303.6875 281.46875 250.667969 306.007812 L 252.722656 310.449219 C 279.246094 298.171875 301.726562 278.707031 317.730469 254.15625 C 334.152344 228.960938 342.835938 199.675781 342.835938 169.464844 C 342.835938 127.992188 326.6875 89.003906 297.367188 59.675781 C 268.046875 30.351562 229.0625 14.203125 187.597656 14.203125 " fill-opacity="1" fill-rule="nonzero"/></g><g clip-path="url(#aca9084a3e)"><path fill="#efb810" d="M 163.289062 322.285156 C 174.542969 318.175781 183.492188 309.226562 187.597656 297.96875 C 191.703125 309.226562 200.652344 318.175781 211.902344 322.285156 C 200.652344 326.390625 191.703125 335.339844 187.597656 346.597656 C 183.492188 335.339844 174.542969 326.390625 163.289062 322.285156 Z M 190.042969 284.078125 L 185.152344 284.078125 C 185.152344 303.796875 169.113281 319.835938 149.398438 319.835938 L 149.398438 324.730469 C 169.113281 324.730469 185.152344 340.773438 185.152344 360.488281 L 190.042969 360.488281 C 190.042969 340.773438 206.082031 324.730469 225.796875 324.730469 L 225.796875 319.835938 C 206.082031 319.835938 190.042969 303.796875 190.042969 284.078125 " fill-opacity="1" fill-rule="nonzero"/></g><g clip-path="url(#25558229a9)"><path fill="#fa6611" d="M 216.011719 214.226562 C 200.289062 185.984375 190.734375 154.941406 187.625 123.25 C 184.539062 154.941406 175.011719 185.984375 159.289062 214.226562 C 147.226562 198.605469 128.894531 179.160156 105.523438 164.242188 C 126.589844 203.203125 131.304688 239.046875 133.585938 258.464844 C 140.882812 250.640625 153.320312 233.648438 159.765625 222.898438 C 171.277344 238.84375 180.703125 256.441406 187.648438 275.359375 C 194.570312 256.441406 204.023438 238.820312 215.535156 222.898438 C 221.980469 233.621094 234.417969 250.640625 241.714844 258.464844 C 243.996094 239.046875 248.710938 203.203125 269.773438 164.242188 C 246.402344 179.160156 228.074219 198.605469 216.011719 214.226562 Z M 137.246094 246.941406 C 134.640625 223.574219 128.445312 200.980469 118.867188 179.886719 C 132.984375 191.207031 145.699219 204.253906 156.707031 218.75 C 150.964844 228.546875 144.492188 237.96875 137.246094 246.941406 Z M 187.648438 262.613281 C 180.980469 246.96875 172.480469 232.070312 162.421875 218.375 C 173.933594 198.207031 182.460938 176.335938 187.648438 153.34375 C 187.648438 153.34375 187.648438 153.320312 187.675781 153.320312 C 187.675781 153.320312 187.675781 153.34375 187.699219 153.34375 C 192.890625 176.335938 201.417969 198.207031 212.925781 218.375 C 202.820312 232.070312 194.34375 246.992188 187.648438 262.613281 Z M 238.054688 246.941406 C 230.808594 237.96875 224.335938 228.546875 218.59375 218.75 C 229.601562 204.253906 242.316406 191.207031 256.433594 179.886719 C 246.878906 200.980469 240.660156 223.574219 238.054688 246.941406 Z M 238.054688 246.941406 " fill-opacity="1" fill-rule="nonzero"/></g><g clip-path="url(#a8296e4831)"><path fill="#fa6611" d="M 187.316406 69.34375 C 183.191406 73.5625 179.066406 77.78125 174.941406 82 C 179.066406 89.03125 183.191406 96.0625 187.316406 103.09375 C 191.441406 96.0625 195.566406 89.03125 199.691406 82 C 195.566406 77.78125 191.441406 73.5625 187.316406 69.34375 Z M 187.316406 69.34375 " fill-opacity="1" fill-rule="nonzero"/></g><g clip-path="url(#ad0d5576e6)"><path fill="#fa6611" d="M 269.289062 118.242188 C 265.167969 122.460938 261.042969 126.679688 256.917969 130.898438 C 261.042969 137.929688 265.167969 144.960938 269.289062 151.992188 C 273.414062 144.960938 277.539062 137.929688 281.664062 130.898438 C 277.539062 126.679688 273.414062 122.460938 269.289062 118.242188 Z M 269.289062 118.242188 " fill-opacity="1" fill-rule="nonzero"/></g><g clip-path="url(#fc57186ce8)"><path fill="#fa6611" d="M 105.339844 118.242188 C 101.21875 122.460938 97.09375 126.679688 92.96875 130.898438 C 97.09375 137.929688 101.21875 144.960938 105.339844 151.992188 C 109.464844 144.960938 113.589844 137.929688 117.714844 130.898438 C 113.589844 126.679688 109.464844 122.460938 105.339844 118.242188 Z M 105.339844 118.242188 " fill-opacity="1" fill-rule="nonzero"/></g><g clip-path="url(#23c3d4fb57)"><path fill="#efb810" d="M 251.222656 99.066406 C 234.523438 97.539062 233.277344 96.308594 231.742188 79.714844 C 230.199219 96.308594 228.957031 97.539062 212.253906 99.066406 C 228.957031 100.585938 230.199219 101.832031 231.742188 118.421875 C 233.277344 101.832031 234.523438 100.585938 251.222656 99.066406 " fill-opacity="1" fill-rule="nonzero"/></g><g clip-path="url(#dda470b6ab)"><path fill="#efb810" d="M 224.855469 115.867188 C 224.269531 122.183594 223.792969 122.65625 217.433594 123.238281 C 223.792969 123.816406 224.269531 124.300781 224.855469 130.625 C 225.433594 124.296875 225.910156 123.816406 232.273438 123.238281 C 225.910156 122.65625 225.433594 122.183594 224.855469 115.867188 " fill-opacity="1" fill-rule="nonzero"/></g><g clip-path="url(#08d0e6cc1d)"><path fill="#efb810" d="M 247.933594 113.398438 C 248.316406 109.296875 248.625 108.992188 252.757812 108.605469 C 248.625 108.230469 248.316406 107.925781 247.933594 103.820312 C 247.554688 107.925781 247.242188 108.230469 243.105469 108.605469 C 247.242188 108.992188 247.554688 109.296875 247.933594 113.398438 " fill-opacity="1" fill-rule="nonzero"/></g><g clip-path="url(#367722d363)"><path fill="#efb810" d="M 123.773438 99.066406 C 140.472656 97.539062 141.71875 96.308594 143.253906 79.714844 C 144.796875 96.308594 146.039062 97.539062 162.742188 99.066406 C 146.039062 100.585938 144.796875 101.832031 143.253906 118.421875 C 141.71875 101.832031 140.472656 100.585938 123.773438 99.066406 " fill-opacity="1" fill-rule="nonzero"/></g><g clip-path="url(#f3e29c9fac)"><path fill="#efb810" d="M 150.140625 115.867188 C 150.726562 122.183594 151.203125 122.65625 157.5625 123.238281 C 151.203125 123.816406 150.726562 124.300781 150.140625 130.625 C 149.5625 124.296875 149.085938 123.816406 142.722656 123.238281 C 149.085938 122.65625 149.5625 122.183594 150.140625 115.867188 " fill-opacity="1" fill-rule="nonzero"/></g><g clip-path="url(#b513fe6a62)"><path fill="#efb810" d="M 127.0625 113.398438 C 126.679688 109.296875 126.371094 108.992188 122.238281 108.605469 C 126.371094 108.230469 126.679688 107.925781 127.0625 103.820312 C 127.441406 107.925781 127.753906 108.230469 131.890625 108.605469 C 127.753906 108.992188 127.441406 109.296875 127.0625 113.398438 " fill-opacity="1" fill-rule="nonzero"/></g></svg>